<mxfile host="app.diagrams.net" modified="2021-06-27T14:46:18.029Z" agent="5.0 (Macintosh; Intel Mac OS X 10_15_7) AppleWebKit/537.36 (KHTML, like Gecko) Chrome/91.0.4472.114 Safari/537.36" etag="k1I8J9cMQ3O1yDr8RkyC" version="14.8.1" type="github">
  <diagram id="AYOPf1eQXfGrNX6ML8EV" name="第 1 页">
    <mxGraphModel dx="946" dy="589" grid="1" gridSize="10" guides="1" tooltips="1" connect="1" arrows="1" fold="1" page="1" pageScale="1" pageWidth="3300" pageHeight="2339" math="0" shadow="0">
      <root>
        <mxCell id="0" />
        <mxCell id="1" parent="0" />
        <mxCell id="NxRHCvVV7DsMIUuRIAjp-1" style="edgeStyle=orthogonalEdgeStyle;rounded=0;orthogonalLoop=1;jettySize=auto;html=1;exitX=0;exitY=0;exitDx=0;exitDy=0;dashed=1;endArrow=none;endFill=0;" parent="1" source="NxRHCvVV7DsMIUuRIAjp-2" edge="1">
          <mxGeometry relative="1" as="geometry">
            <mxPoint x="100" y="449.9999999999998" as="targetPoint" />
          </mxGeometry>
        </mxCell>
        <mxCell id="NxRHCvVV7DsMIUuRIAjp-2" value="1" style="rounded=0;whiteSpace=wrap;html=1;fillColor=#d5e8d4;strokeColor=#82b366;" parent="1" vertex="1">
          <mxGeometry x="100" y="480" width="40" height="30" as="geometry" />
        </mxCell>
        <mxCell id="NxRHCvVV7DsMIUuRIAjp-3" style="edgeStyle=orthogonalEdgeStyle;rounded=0;orthogonalLoop=1;jettySize=auto;html=1;exitX=0;exitY=1;exitDx=0;exitDy=0;dashed=1;endArrow=none;endFill=0;" parent="1" source="NxRHCvVV7DsMIUuRIAjp-4" edge="1">
          <mxGeometry relative="1" as="geometry">
            <mxPoint x="180" y="539.9999999999998" as="targetPoint" />
          </mxGeometry>
        </mxCell>
        <mxCell id="NxRHCvVV7DsMIUuRIAjp-4" value="3" style="rounded=0;whiteSpace=wrap;html=1;fillColor=#dae8fc;strokeColor=#6c8ebf;" parent="1" vertex="1">
          <mxGeometry x="180" y="480" width="40" height="30" as="geometry" />
        </mxCell>
        <mxCell id="NxRHCvVV7DsMIUuRIAjp-5" style="edgeStyle=orthogonalEdgeStyle;rounded=0;orthogonalLoop=1;jettySize=auto;html=1;exitX=1;exitY=0;exitDx=0;exitDy=0;dashed=1;endArrow=none;endFill=0;entryX=-0.017;entryY=0.5;entryDx=0;entryDy=0;entryPerimeter=0;" parent="1" source="NxRHCvVV7DsMIUuRIAjp-6" target="NxRHCvVV7DsMIUuRIAjp-23" edge="1">
          <mxGeometry relative="1" as="geometry">
            <mxPoint x="250" y="450" as="targetPoint" />
            <Array as="points">
              <mxPoint x="180" y="450" />
            </Array>
          </mxGeometry>
        </mxCell>
        <mxCell id="NxRHCvVV7DsMIUuRIAjp-6" value="2" style="rounded=0;whiteSpace=wrap;html=1;fillColor=#d5e8d4;strokeColor=#82b366;" parent="1" vertex="1">
          <mxGeometry x="140" y="480" width="40" height="30" as="geometry" />
        </mxCell>
        <mxCell id="NxRHCvVV7DsMIUuRIAjp-7" value="5" style="rounded=0;whiteSpace=wrap;html=1;fillColor=#dae8fc;strokeColor=#6c8ebf;" parent="1" vertex="1">
          <mxGeometry x="260" y="480" width="40" height="30" as="geometry" />
        </mxCell>
        <mxCell id="NxRHCvVV7DsMIUuRIAjp-8" value="4" style="rounded=0;whiteSpace=wrap;html=1;fillColor=#dae8fc;strokeColor=#6c8ebf;" parent="1" vertex="1">
          <mxGeometry x="220" y="480" width="40" height="30" as="geometry" />
        </mxCell>
        <mxCell id="NxRHCvVV7DsMIUuRIAjp-9" style="edgeStyle=orthogonalEdgeStyle;rounded=0;orthogonalLoop=1;jettySize=auto;html=1;exitX=1;exitY=0;exitDx=0;exitDy=0;dashed=1;endArrow=none;endFill=0;" parent="1" source="NxRHCvVV7DsMIUuRIAjp-15" target="NxRHCvVV7DsMIUuRIAjp-47" edge="1">
          <mxGeometry relative="1" as="geometry">
            <mxPoint x="490" y="450" as="targetPoint" />
            <Array as="points">
              <mxPoint x="540" y="450" />
            </Array>
          </mxGeometry>
        </mxCell>
        <mxCell id="NxRHCvVV7DsMIUuRIAjp-10" value="7" style="rounded=0;whiteSpace=wrap;html=1;fillColor=#dae8fc;strokeColor=#6c8ebf;" parent="1" vertex="1">
          <mxGeometry x="340" y="480" width="40" height="30" as="geometry" />
        </mxCell>
        <mxCell id="NxRHCvVV7DsMIUuRIAjp-11" value="6" style="rounded=0;whiteSpace=wrap;html=1;fillColor=#dae8fc;strokeColor=#6c8ebf;" parent="1" vertex="1">
          <mxGeometry x="300" y="480" width="40" height="30" as="geometry" />
        </mxCell>
        <mxCell id="NxRHCvVV7DsMIUuRIAjp-12" style="edgeStyle=orthogonalEdgeStyle;rounded=0;orthogonalLoop=1;jettySize=auto;html=1;exitX=0;exitY=1;exitDx=0;exitDy=0;dashed=1;endArrow=none;endFill=0;" parent="1" source="NxRHCvVV7DsMIUuRIAjp-13" edge="1">
          <mxGeometry relative="1" as="geometry">
            <mxPoint x="380" y="539.9999999999998" as="targetPoint" />
          </mxGeometry>
        </mxCell>
        <mxCell id="NxRHCvVV7DsMIUuRIAjp-13" value="8" style="rounded=0;whiteSpace=wrap;html=1;fillColor=#ffe6cc;strokeColor=#d79b00;" parent="1" vertex="1">
          <mxGeometry x="380" y="480" width="40" height="30" as="geometry" />
        </mxCell>
        <mxCell id="NxRHCvVV7DsMIUuRIAjp-14" value="9" style="rounded=0;whiteSpace=wrap;html=1;fillColor=#ffe6cc;strokeColor=#d79b00;" parent="1" vertex="1">
          <mxGeometry x="420" y="480" width="40" height="30" as="geometry" />
        </mxCell>
        <mxCell id="NxRHCvVV7DsMIUuRIAjp-15" value="11" style="rounded=0;whiteSpace=wrap;html=1;fillColor=#ffe6cc;strokeColor=#d79b00;" parent="1" vertex="1">
          <mxGeometry x="500" y="480" width="40" height="30" as="geometry" />
        </mxCell>
        <mxCell id="NxRHCvVV7DsMIUuRIAjp-16" value="10" style="rounded=0;whiteSpace=wrap;html=1;fillColor=#ffe6cc;strokeColor=#d79b00;" parent="1" vertex="1">
          <mxGeometry x="460" y="480" width="40" height="30" as="geometry" />
        </mxCell>
        <mxCell id="NxRHCvVV7DsMIUuRIAjp-17" value="13" style="rounded=0;whiteSpace=wrap;html=1;fillColor=#f8cecc;strokeColor=#b85450;" parent="1" vertex="1">
          <mxGeometry x="580" y="480" width="40" height="30" as="geometry" />
        </mxCell>
        <mxCell id="NxRHCvVV7DsMIUuRIAjp-18" style="edgeStyle=orthogonalEdgeStyle;rounded=0;orthogonalLoop=1;jettySize=auto;html=1;exitX=0;exitY=1;exitDx=0;exitDy=0;dashed=1;endArrow=none;endFill=0;" parent="1" source="NxRHCvVV7DsMIUuRIAjp-19" edge="1">
          <mxGeometry relative="1" as="geometry">
            <mxPoint x="540" y="539.9999999999998" as="targetPoint" />
          </mxGeometry>
        </mxCell>
        <mxCell id="NxRHCvVV7DsMIUuRIAjp-19" value="12" style="rounded=0;whiteSpace=wrap;html=1;fillColor=#f8cecc;strokeColor=#b85450;" parent="1" vertex="1">
          <mxGeometry x="540" y="480" width="40" height="30" as="geometry" />
        </mxCell>
        <mxCell id="NxRHCvVV7DsMIUuRIAjp-20" value="15" style="rounded=0;whiteSpace=wrap;html=1;fillColor=#f8cecc;strokeColor=#b85450;" parent="1" vertex="1">
          <mxGeometry x="660" y="480" width="40" height="30" as="geometry" />
        </mxCell>
        <mxCell id="NxRHCvVV7DsMIUuRIAjp-21" value="14" style="rounded=0;whiteSpace=wrap;html=1;fillColor=#f8cecc;strokeColor=#b85450;" parent="1" vertex="1">
          <mxGeometry x="620" y="480" width="40" height="30" as="geometry" />
        </mxCell>
        <mxCell id="NxRHCvVV7DsMIUuRIAjp-22" value="16" style="rounded=0;whiteSpace=wrap;html=1;fillColor=#f8cecc;strokeColor=#b85450;" parent="1" vertex="1">
          <mxGeometry x="700" y="480" width="40" height="30" as="geometry" />
        </mxCell>
        <mxCell id="NxRHCvVV7DsMIUuRIAjp-23" value="发送窗口" style="text;html=1;align=center;verticalAlign=middle;resizable=0;points=[];autosize=1;strokeColor=none;" parent="1" vertex="1">
          <mxGeometry x="340" y="440" width="60" height="20" as="geometry" />
        </mxCell>
        <mxCell id="NxRHCvVV7DsMIUuRIAjp-24" style="edgeStyle=orthogonalEdgeStyle;rounded=0;orthogonalLoop=1;jettySize=auto;html=1;exitX=0;exitY=0;exitDx=0;exitDy=0;dashed=1;endArrow=none;endFill=0;" parent="1" source="NxRHCvVV7DsMIUuRIAjp-25" edge="1">
          <mxGeometry relative="1" as="geometry">
            <mxPoint x="100" y="639.9999999999998" as="targetPoint" />
          </mxGeometry>
        </mxCell>
        <mxCell id="NxRHCvVV7DsMIUuRIAjp-25" value="1" style="rounded=0;whiteSpace=wrap;html=1;fillColor=#d5e8d4;strokeColor=#82b366;" parent="1" vertex="1">
          <mxGeometry x="100" y="670" width="40" height="30" as="geometry" />
        </mxCell>
        <mxCell id="NxRHCvVV7DsMIUuRIAjp-26" style="edgeStyle=orthogonalEdgeStyle;rounded=0;orthogonalLoop=1;jettySize=auto;html=1;exitX=1;exitY=1;exitDx=0;exitDy=0;dashed=1;endArrow=none;endFill=0;" parent="1" source="NxRHCvVV7DsMIUuRIAjp-27" edge="1">
          <mxGeometry relative="1" as="geometry">
            <mxPoint x="220" y="729.9999999999998" as="targetPoint" />
          </mxGeometry>
        </mxCell>
        <mxCell id="NxRHCvVV7DsMIUuRIAjp-27" value="3" style="rounded=0;whiteSpace=wrap;html=1;" parent="1" vertex="1">
          <mxGeometry x="180" y="670" width="40" height="30" as="geometry" />
        </mxCell>
        <mxCell id="NxRHCvVV7DsMIUuRIAjp-28" style="edgeStyle=orthogonalEdgeStyle;rounded=0;orthogonalLoop=1;jettySize=auto;html=1;exitX=1;exitY=0;exitDx=0;exitDy=0;dashed=1;endArrow=none;endFill=0;entryX=-0.067;entryY=0.45;entryDx=0;entryDy=0;entryPerimeter=0;" parent="1" source="NxRHCvVV7DsMIUuRIAjp-29" target="NxRHCvVV7DsMIUuRIAjp-46" edge="1">
          <mxGeometry relative="1" as="geometry">
            <mxPoint x="250" y="640" as="targetPoint" />
            <Array as="points">
              <mxPoint x="180" y="640" />
              <mxPoint x="240" y="640" />
              <mxPoint x="240" y="639" />
            </Array>
          </mxGeometry>
        </mxCell>
        <mxCell id="NxRHCvVV7DsMIUuRIAjp-29" value="2" style="rounded=0;whiteSpace=wrap;html=1;fillColor=#d5e8d4;strokeColor=#82b366;" parent="1" vertex="1">
          <mxGeometry x="140" y="670" width="40" height="30" as="geometry" />
        </mxCell>
        <mxCell id="NxRHCvVV7DsMIUuRIAjp-30" value="5" style="rounded=0;whiteSpace=wrap;html=1;fillColor=#dae8fc;strokeColor=#6c8ebf;" parent="1" vertex="1">
          <mxGeometry x="260" y="670" width="40" height="30" as="geometry" />
        </mxCell>
        <mxCell id="NxRHCvVV7DsMIUuRIAjp-31" value="4" style="rounded=0;whiteSpace=wrap;html=1;fillColor=#dae8fc;strokeColor=#6c8ebf;" parent="1" vertex="1">
          <mxGeometry x="220" y="670" width="40" height="30" as="geometry" />
        </mxCell>
        <mxCell id="NxRHCvVV7DsMIUuRIAjp-32" style="edgeStyle=orthogonalEdgeStyle;rounded=0;orthogonalLoop=1;jettySize=auto;html=1;exitX=1;exitY=0;exitDx=0;exitDy=0;dashed=1;endArrow=none;endFill=0;entryX=1.067;entryY=0.55;entryDx=0;entryDy=0;entryPerimeter=0;" parent="1" source="NxRHCvVV7DsMIUuRIAjp-39" target="NxRHCvVV7DsMIUuRIAjp-46" edge="1">
          <mxGeometry relative="1" as="geometry">
            <mxPoint x="320" y="640" as="targetPoint" />
            <Array as="points">
              <mxPoint x="540" y="640" />
            </Array>
          </mxGeometry>
        </mxCell>
        <mxCell id="NxRHCvVV7DsMIUuRIAjp-33" style="edgeStyle=orthogonalEdgeStyle;rounded=0;orthogonalLoop=1;jettySize=auto;html=1;exitX=0;exitY=1;exitDx=0;exitDy=0;dashed=1;endArrow=none;endFill=0;" parent="1" source="NxRHCvVV7DsMIUuRIAjp-34" edge="1">
          <mxGeometry relative="1" as="geometry">
            <mxPoint x="340" y="729.9999999999998" as="targetPoint" />
          </mxGeometry>
        </mxCell>
        <mxCell id="NxRHCvVV7DsMIUuRIAjp-34" value="7" style="rounded=0;whiteSpace=wrap;html=1;" parent="1" vertex="1">
          <mxGeometry x="340" y="670" width="40" height="30" as="geometry" />
        </mxCell>
        <mxCell id="NxRHCvVV7DsMIUuRIAjp-35" value="6" style="rounded=0;whiteSpace=wrap;html=1;fillColor=#dae8fc;strokeColor=#6c8ebf;" parent="1" vertex="1">
          <mxGeometry x="300" y="670" width="40" height="30" as="geometry" />
        </mxCell>
        <mxCell id="NxRHCvVV7DsMIUuRIAjp-36" value="8" style="rounded=0;whiteSpace=wrap;html=1;" parent="1" vertex="1">
          <mxGeometry x="380" y="670" width="40" height="30" as="geometry" />
        </mxCell>
        <mxCell id="NxRHCvVV7DsMIUuRIAjp-37" value="9" style="rounded=0;whiteSpace=wrap;html=1;" parent="1" vertex="1">
          <mxGeometry x="420" y="670" width="40" height="30" as="geometry" />
        </mxCell>
        <mxCell id="NxRHCvVV7DsMIUuRIAjp-38" style="edgeStyle=orthogonalEdgeStyle;rounded=0;orthogonalLoop=1;jettySize=auto;html=1;exitX=1;exitY=1;exitDx=0;exitDy=0;dashed=1;endArrow=none;endFill=0;" parent="1" source="NxRHCvVV7DsMIUuRIAjp-39" edge="1">
          <mxGeometry relative="1" as="geometry">
            <mxPoint x="540" y="729.9999999999998" as="targetPoint" />
          </mxGeometry>
        </mxCell>
        <mxCell id="NxRHCvVV7DsMIUuRIAjp-39" value="11" style="rounded=0;whiteSpace=wrap;html=1;" parent="1" vertex="1">
          <mxGeometry x="500" y="670" width="40" height="30" as="geometry" />
        </mxCell>
        <mxCell id="NxRHCvVV7DsMIUuRIAjp-40" value="10" style="rounded=0;whiteSpace=wrap;html=1;" parent="1" vertex="1">
          <mxGeometry x="460" y="670" width="40" height="30" as="geometry" />
        </mxCell>
        <mxCell id="NxRHCvVV7DsMIUuRIAjp-41" value="13" style="rounded=0;whiteSpace=wrap;html=1;fillColor=#f8cecc;strokeColor=#b85450;" parent="1" vertex="1">
          <mxGeometry x="580" y="670" width="40" height="30" as="geometry" />
        </mxCell>
        <mxCell id="NxRHCvVV7DsMIUuRIAjp-42" value="12" style="rounded=0;whiteSpace=wrap;html=1;fillColor=#f8cecc;strokeColor=#b85450;" parent="1" vertex="1">
          <mxGeometry x="540" y="670" width="40" height="30" as="geometry" />
        </mxCell>
        <mxCell id="NxRHCvVV7DsMIUuRIAjp-43" value="15" style="rounded=0;whiteSpace=wrap;html=1;fillColor=#f8cecc;strokeColor=#b85450;" parent="1" vertex="1">
          <mxGeometry x="660" y="670" width="40" height="30" as="geometry" />
        </mxCell>
        <mxCell id="NxRHCvVV7DsMIUuRIAjp-44" value="14" style="rounded=0;whiteSpace=wrap;html=1;fillColor=#f8cecc;strokeColor=#b85450;" parent="1" vertex="1">
          <mxGeometry x="620" y="670" width="40" height="30" as="geometry" />
        </mxCell>
        <mxCell id="NxRHCvVV7DsMIUuRIAjp-45" value="16" style="rounded=0;whiteSpace=wrap;html=1;fillColor=#f8cecc;strokeColor=#b85450;" parent="1" vertex="1">
          <mxGeometry x="700" y="670" width="40" height="30" as="geometry" />
        </mxCell>
        <mxCell id="NxRHCvVV7DsMIUuRIAjp-46" value="接收窗口" style="text;html=1;align=center;verticalAlign=middle;resizable=0;points=[];autosize=1;strokeColor=none;" parent="1" vertex="1">
          <mxGeometry x="340" y="630" width="60" height="20" as="geometry" />
        </mxCell>
        <mxCell id="NxRHCvVV7DsMIUuRIAjp-47" value="发送窗口" style="text;html=1;align=center;verticalAlign=middle;resizable=0;points=[];autosize=1;strokeColor=none;" parent="1" vertex="1">
          <mxGeometry x="340" y="440" width="60" height="20" as="geometry" />
        </mxCell>
        <mxCell id="NxRHCvVV7DsMIUuRIAjp-48" value="已收到ACK" style="text;html=1;align=center;verticalAlign=middle;resizable=0;points=[];autosize=1;strokeColor=none;" parent="1" vertex="1">
          <mxGeometry x="100" y="450" width="80" height="20" as="geometry" />
        </mxCell>
        <mxCell id="NxRHCvVV7DsMIUuRIAjp-49" value="已发送未确认" style="text;html=1;align=center;verticalAlign=middle;resizable=0;points=[];autosize=1;strokeColor=none;" parent="1" vertex="1">
          <mxGeometry x="235" y="520" width="90" height="20" as="geometry" />
        </mxCell>
        <mxCell id="NxRHCvVV7DsMIUuRIAjp-50" value="允许发送，但未发送" style="text;html=1;align=center;verticalAlign=middle;resizable=0;points=[];autosize=1;strokeColor=none;" parent="1" vertex="1">
          <mxGeometry x="400" y="520" width="120" height="20" as="geometry" />
        </mxCell>
        <mxCell id="NxRHCvVV7DsMIUuRIAjp-51" value="不允许发送" style="text;html=1;align=center;verticalAlign=middle;resizable=0;points=[];autosize=1;strokeColor=none;" parent="1" vertex="1">
          <mxGeometry x="610" y="520" width="80" height="20" as="geometry" />
        </mxCell>
        <mxCell id="NxRHCvVV7DsMIUuRIAjp-52" value="不允许接收" style="text;html=1;align=center;verticalAlign=middle;resizable=0;points=[];autosize=1;strokeColor=none;" parent="1" vertex="1">
          <mxGeometry x="600" y="710" width="80" height="20" as="geometry" />
        </mxCell>
        <mxCell id="NxRHCvVV7DsMIUuRIAjp-53" value="已发送ACK" style="text;html=1;align=center;verticalAlign=middle;resizable=0;points=[];autosize=1;strokeColor=none;" parent="1" vertex="1">
          <mxGeometry x="100" y="640" width="80" height="20" as="geometry" />
        </mxCell>
        <mxCell id="NxRHCvVV7DsMIUuRIAjp-54" value="未按照序列收到" style="text;html=1;align=center;verticalAlign=middle;resizable=0;points=[];autosize=1;strokeColor=none;" parent="1" vertex="1">
          <mxGeometry x="230" y="710" width="100" height="20" as="geometry" />
        </mxCell>
        <mxCell id="NxRHCvVV7DsMIUuRIAjp-55" value="允许接收" style="text;html=1;align=center;verticalAlign=middle;resizable=0;points=[];autosize=1;strokeColor=none;" parent="1" vertex="1">
          <mxGeometry x="410" y="710" width="60" height="20" as="geometry" />
        </mxCell>
        <mxCell id="NxRHCvVV7DsMIUuRIAjp-56" value="&lt;b&gt;&lt;font style=&quot;font-size: 14px&quot;&gt;发送端和接收端滑动窗口&lt;/font&gt;&lt;/b&gt;" style="text;html=1;strokeColor=none;fillColor=none;align=center;verticalAlign=middle;whiteSpace=wrap;rounded=0;" parent="1" vertex="1">
          <mxGeometry x="330" y="760" width="180" height="20" as="geometry" />
        </mxCell>
      </root>
    </mxGraphModel>
  </diagram>
</mxfile>
